<?xml version="1.0" encoding="UTF-8" standalone="no"?>
<!DOCTYPE svg PUBLIC "-//W3C//DTD SVG 1.1//EN"
 "http://www.w3.org/Graphics/SVG/1.1/DTD/svg11.dtd">
<!-- Generated by graphviz version 12.2.1 (0)
 -->
<!-- Title: SinexCrateDependencies Pages: 1 -->
<svg  
 viewBox="0.00 0.00 1028.93 532.88" xmlns="http://www.w3.org/2000/svg" xmlns:xlink="http://www.w3.org/1999/xlink">
<g id="graph0" class="graph" transform="scale(1 1) rotate(0) translate(4 528.88)">
<title>SinexCrateDependencies</title>
<polygon fill="white" stroke="none" points="-4,4 -4,-528.88 1024.93,-528.88 1024.93,4 -4,4"/>
<g id="clust1" class="cluster">
<title>cluster_binaries</title>
<polygon fill="#e6f3ff" stroke="black" points="146.93,-428.25 146.93,-516.88 574.93,-516.88 574.93,-428.25 146.93,-428.25"/>
<text text-anchor="middle" x="360.93" y="-499.58" font-family="JetBrains Mono Bold" font-size="14.00">Application Binaries</text>
</g>
<g id="clust2" class="cluster">
<title>cluster_core</title>
<polygon fill="#f0fff0" stroke="black" points="35.93,-104.25 35.93,-402.88 403.93,-402.88 403.93,-104.25 35.93,-104.25"/>
<text text-anchor="middle" x="219.93" y="-385.57" font-family="JetBrains Mono Bold" font-size="14.00">Core Libraries</text>
</g>
<g id="clust3" class="cluster">
<title>cluster_shared</title>
<polygon fill="#fff5ee" stroke="black" points="411.93,-296.25 411.93,-409.25 621.93,-409.25 621.93,-296.25 411.93,-296.25"/>
<text text-anchor="middle" x="516.93" y="-391.95" font-family="JetBrains Mono Bold" font-size="14.00">Shared Utilities (Legacy)</text>
</g>
<g id="clust4" class="cluster">
<title>cluster_external</title>
<polygon fill="#ffeef0" stroke="black" points="394.93,-8 394.93,-85.25 864.93,-85.25 864.93,-8 394.93,-8"/>
<text text-anchor="middle" x="629.93" y="-67.95" font-family="JetBrains Mono Bold" font-size="14.00">Key External Dependencies</text>
</g>
<g id="clust5" class="cluster">
<title>cluster_legend</title>
<polygon fill="#ffffff" stroke="black" points="582.93,-433.94 582.93,-511.19 1012.93,-511.19 1012.93,-433.94 582.93,-433.94"/>
<text text-anchor="middle" x="797.93" y="-493.89" font-family="JetBrains Mono Bold" font-size="14.00">Legend</text>
</g>
<!-- unified_collector -->
<g id="node1" class="node">
<title>unified_collector</title>
<ellipse fill="#87ceeb" stroke="black" cx="499.93" cy="-459.94" rx="67" ry="23.69"/>
<text text-anchor="middle" x="499.93" y="-463.19" font-family="JetBrains Mono" font-size="10.00">unified&#45;collector</text>
<text text-anchor="middle" x="499.93" y="-450.44" font-family="JetBrains Mono" font-size="10.00">(Binary)</text>
</g>
<!-- sinex_core -->
<g id="node4" class="node">
<title>sinex_core</title>
<polygon fill="#90ee90" stroke="black" points="395.68,-171.25 168.18,-171.25 168.18,-112.25 395.68,-112.25 395.68,-171.25"/>
<text text-anchor="middle" x="281.93" y="-157.75" font-family="JetBrains Mono" font-size="10.00">sinex&#45;core</text>
<text text-anchor="middle" x="281.93" y="-145" font-family="JetBrains Mono" font-size="10.00">• RawEvent types</text>
<text text-anchor="middle" x="281.93" y="-132.25" font-family="JetBrains Mono" font-size="10.00">• EventType/StatefulStreamProcessor traits</text>
<text text-anchor="middle" x="281.93" y="-119.5" font-family="JetBrains Mono" font-size="10.00">• Error handling</text>
</g>
<!-- unified_collector&#45;&gt;sinex_core -->
<g id="edge1" class="edge">
<title>unified_collector&#45;&gt;sinex_core</title>
<path fill="none" stroke="black" d="M540.24,-440.76C552.44,-435.95 566.03,-431.26 578.93,-428.25 603.48,-422.52 674.91,-436.84 691.93,-418.25 728.54,-378.25 714.74,-345.44 691.93,-296.25 643.54,-191.91 509.09,-157.29 407.24,-146.42"/>
<polygon fill="black" stroke="black" points="407.73,-142.95 397.43,-145.45 407.04,-149.92 407.73,-142.95"/>
</g>
<!-- sinex_db -->
<g id="node5" class="node">
<title>sinex_db</title>
<polygon fill="#90ee90" stroke="black" points="186.18,-267.25 45.68,-267.25 45.68,-208.25 186.18,-208.25 186.18,-267.25"/>
<text text-anchor="middle" x="115.93" y="-253.75" font-family="JetBrains Mono" font-size="10.00">sinex&#45;db</text>
<text text-anchor="middle" x="115.93" y="-241" font-family="JetBrains Mono" font-size="10.00">• Database models</text>
<text text-anchor="middle" x="115.93" y="-228.25" font-family="JetBrains Mono" font-size="10.00">• Connection pooling</text>
<text text-anchor="middle" x="115.93" y="-215.5" font-family="JetBrains Mono" font-size="10.00">• Query implementations</text>
</g>
<!-- unified_collector&#45;&gt;sinex_db -->
<g id="edge2" class="edge">
<title>unified_collector&#45;&gt;sinex_db</title>
<path fill="none" stroke="black" d="M453.22,-442.49C436.87,-434.67 419.68,-423.79 407.93,-409.25 375.04,-368.56 414.14,-330.89 374.93,-296.25 317.13,-245.18 277.51,-283.66 197.42,-267.2"/>
<polygon fill="black" stroke="black" points="198.39,-263.83 187.86,-264.97 196.81,-270.65 198.39,-263.83"/>
</g>
<!-- sinex_events -->
<g id="node7" class="node">
<title>sinex_events</title>
<polygon fill="#90ee90" stroke="black" points="355.43,-267.25 204.43,-267.25 204.43,-208.25 355.43,-208.25 355.43,-267.25"/>
<text text-anchor="middle" x="279.93" y="-253.75" font-family="JetBrains Mono" font-size="10.00">sinex&#45;events</text>
<text text-anchor="middle" x="279.93" y="-241" font-family="JetBrains Mono" font-size="10.00">• Event type definitions</text>
<text text-anchor="middle" x="279.93" y="-228.25" font-family="JetBrains Mono" font-size="10.00">• Filesystem, Terminal, WM</text>
<text text-anchor="middle" x="279.93" y="-215.5" font-family="JetBrains Mono" font-size="10.00">• Payload structures</text>
</g>
<!-- unified_collector&#45;&gt;sinex_events -->
<g id="edge3" class="edge">
<title>unified_collector&#45;&gt;sinex_events</title>
<path fill="none" stroke="black" d="M460.4,-440.5C448.87,-435.81 436.09,-431.24 423.93,-428.25 382.51,-418.05 261.56,-440.87 232.93,-409.25 199.22,-372.02 216.06,-343.55 232.93,-296.25 235.34,-289.48 238.94,-282.92 243.08,-276.82"/>
<polygon fill="black" stroke="black" points="245.87,-278.94 249.05,-268.84 240.26,-274.75 245.87,-278.94"/>
</g>
<!-- ingestor_shared -->
<g id="node9" class="node">
<title>ingestor_shared</title>
<polygon fill="none" stroke="black" stroke-dasharray="5,2" points="566.05,-376 421.8,-376 421.8,-304.25 566.05,-304.25 566.05,-376"/>
<text text-anchor="middle" x="493.93" y="-362.5" font-family="JetBrains Mono" font-size="10.00">ingestor/shared</text>
<text text-anchor="middle" x="493.93" y="-349.75" font-family="JetBrains Mono" font-size="10.00">• SimpleIngestor trait</text>
<text text-anchor="middle" x="493.93" y="-337" font-family="JetBrains Mono" font-size="10.00">• IngestorRuntime</text>
<text text-anchor="middle" x="493.93" y="-324.25" font-family="JetBrains Mono" font-size="10.00">• EventSink abstractions</text>
<text text-anchor="middle" x="493.93" y="-311.5" font-family="JetBrains Mono" font-size="10.00">(Being migrated to crates)</text>
</g>
<!-- unified_collector&#45;&gt;ingestor_shared -->
<g id="edge4" class="edge">
<title>unified_collector&#45;&gt;ingestor_shared</title>
<path fill="none" stroke="black" d="M498.76,-435.94C498.05,-422.12 497.13,-404.04 496.28,-387.37"/>
<polygon fill="black" stroke="black" points="499.79,-387.45 495.79,-377.64 492.8,-387.81 499.79,-387.45"/>
</g>
<!-- tokio -->
<g id="node11" class="node">
<title>tokio</title>
<polygon fill="#ffb6c1" stroke="black" points="690.43,-52 593.43,-52 593.43,-16 690.43,-16 690.43,-52"/>
<text text-anchor="middle" x="641.93" y="-37.25" font-family="JetBrains Mono" font-size="10.00">tokio</text>
<text text-anchor="middle" x="641.93" y="-24.5" font-family="JetBrains Mono" font-size="10.00">(Async Runtime)</text>
</g>
<!-- unified_collector&#45;&gt;tokio -->
<g id="edge19" class="edge">
<title>unified_collector&#45;&gt;tokio</title>
<path fill="none" stroke="black" d="M540.22,-440.68C552.42,-435.87 566.02,-431.2 578.93,-428.25 634.13,-415.64 653.39,-439.36 705.93,-418.25 737.67,-405.49 753.93,-359.63 753.93,-341.12 753.93,-341.12 753.93,-341.12 753.93,-140.75 753.93,-135 703.3,-89.18 670.12,-59.77"/>
<polygon fill="black" stroke="black" points="672.64,-57.32 662.83,-53.32 668,-62.56 672.64,-57.32"/>
</g>
<!-- notify -->
<g id="node13" class="node">
<title>notify</title>
<polygon fill="#ffb6c1" stroke="black" points="785.3,-52 708.55,-52 708.55,-16 785.3,-16 785.3,-52"/>
<text text-anchor="middle" x="746.93" y="-37.25" font-family="JetBrains Mono" font-size="10.00">notify</text>
<text text-anchor="middle" x="746.93" y="-24.5" font-family="JetBrains Mono" font-size="10.00">(Filesystem)</text>
</g>
<!-- unified_collector&#45;&gt;notify -->
<g id="edge20" class="edge">
<title>unified_collector&#45;&gt;notify</title>
<path fill="none" stroke="black" d="M540.2,-440.61C552.41,-435.8 566.01,-431.15 578.93,-428.25 616.67,-419.79 721.4,-433 751.93,-409.25 779.64,-387.69 791.93,-376.24 791.93,-341.12 791.93,-341.12 791.93,-341.12 791.93,-140.75 791.93,-112.25 777.91,-82.62 765.53,-62"/>
<polygon fill="black" stroke="black" points="768.56,-60.25 760.27,-53.66 762.64,-63.98 768.56,-60.25"/>
</g>
<!-- clap -->
<g id="node14" class="node">
<title>clap</title>
<polygon fill="#ffb6c1" stroke="black" points="856.93,-52 802.93,-52 802.93,-16 856.93,-16 856.93,-52"/>
<text text-anchor="middle" x="829.93" y="-37.25" font-family="JetBrains Mono" font-size="10.00">clap</text>
<text text-anchor="middle" x="829.93" y="-24.5" font-family="JetBrains Mono" font-size="10.00">(CLI)</text>
</g>
<!-- unified_collector&#45;&gt;clap -->
<g id="edge21" class="edge">
<title>unified_collector&#45;&gt;clap</title>
<path fill="none" stroke="black" d="M540.18,-440.53C552.39,-435.71 565.99,-431.08 578.93,-428.25 694.29,-403.04 829.93,-459.21 829.93,-341.12 829.93,-341.12 829.93,-341.12 829.93,-140.75 829.93,-114.66 829.93,-84.95 829.93,-63.68"/>
<polygon fill="black" stroke="black" points="833.43,-63.73 829.93,-53.73 826.43,-63.73 833.43,-63.73"/>
</g>
<!-- promo_worker -->
<g id="node2" class="node">
<title>promo_worker</title>
<ellipse fill="#87ceeb" stroke="black" cx="333.93" cy="-459.94" rx="80.79" ry="23.69"/>
<text text-anchor="middle" x="333.93" y="-463.19" font-family="JetBrains Mono" font-size="10.00">sinex&#45;promo&#45;worker</text>
<text text-anchor="middle" x="333.93" y="-450.44" font-family="JetBrains Mono" font-size="10.00">(Binary)</text>
</g>
<!-- promo_worker&#45;&gt;sinex_core -->
<g id="edge5" class="edge">
<title>promo_worker&#45;&gt;sinex_core</title>
<path fill="none" stroke="black" d="M381.45,-440.41C394.99,-435.77 409.89,-431.26 423.93,-428.25 468.01,-418.8 595.58,-442.59 625.93,-409.25 659.74,-372.11 648.17,-341.28 625.93,-296.25 585.74,-214.88 488.04,-176.62 406.99,-158.65"/>
<polygon fill="black" stroke="black" points="408.17,-155.32 397.66,-156.66 406.71,-162.17 408.17,-155.32"/>
</g>
<!-- promo_worker&#45;&gt;sinex_db -->
<g id="edge6" class="edge">
<title>promo_worker&#45;&gt;sinex_db</title>
<path fill="none" stroke="black" d="M283.2,-441.11C246.7,-428.13 203.3,-412.29 199.93,-409.25 160.91,-374.04 137.92,-316.64 126.13,-278.3"/>
<polygon fill="black" stroke="black" points="129.57,-277.59 123.39,-268.99 122.86,-279.57 129.57,-277.59"/>
</g>
<!-- sinex_worker -->
<g id="node8" class="node">
<title>sinex_worker</title>
<polygon fill="#90ee90" stroke="black" points="365.55,-369.62 242.3,-369.62 242.3,-310.62 365.55,-310.62 365.55,-369.62"/>
<text text-anchor="middle" x="303.93" y="-356.12" font-family="JetBrains Mono" font-size="10.00">sinex&#45;worker</text>
<text text-anchor="middle" x="303.93" y="-343.38" font-family="JetBrains Mono" font-size="10.00">• EventProcessor trait</text>
<text text-anchor="middle" x="303.93" y="-330.62" font-family="JetBrains Mono" font-size="10.00">• Worker framework</text>
<text text-anchor="middle" x="303.93" y="-317.88" font-family="JetBrains Mono" font-size="10.00">• Metrics collection</text>
</g>
<!-- promo_worker&#45;&gt;sinex_worker -->
<g id="edge7" class="edge">
<title>promo_worker&#45;&gt;sinex_worker</title>
<path fill="none" stroke="black" d="M328.07,-435.94C324.09,-420.3 318.72,-399.21 314.05,-380.88"/>
<polygon fill="black" stroke="black" points="317.49,-380.2 311.63,-371.37 310.71,-381.93 317.49,-380.2"/>
</g>
<!-- promo_worker&#45;&gt;tokio -->
<g id="edge22" class="edge">
<title>promo_worker&#45;&gt;tokio</title>
<path fill="none" stroke="black" d="M380.43,-440.32C394.22,-435.56 409.5,-431.01 423.93,-428.25 513.09,-411.21 539.17,-437.26 627.93,-418.25 638.66,-415.95 644.74,-418.32 650.93,-409.25 725.22,-300.4 676.18,-129.19 652.57,-62.7"/>
<polygon fill="black" stroke="black" points="655.99,-61.86 649.28,-53.66 649.41,-64.25 655.99,-61.86"/>
</g>
<!-- cli -->
<g id="node3" class="node">
<title>cli</title>
<ellipse fill="#ffe4b5" stroke="black" cx="194.93" cy="-459.94" rx="40.48" ry="23.69"/>
<text text-anchor="middle" x="194.93" y="-463.19" font-family="JetBrains Mono" font-size="10.00">exo CLI</text>
<text text-anchor="middle" x="194.93" y="-450.44" font-family="JetBrains Mono" font-size="10.00">(Python)</text>
</g>
<!-- cli&#45;&gt;sinex_db -->
<g id="edge8" class="edge">
<title>cli&#45;&gt;sinex_db</title>
<path fill="none" stroke="black" stroke-dasharray="5,2" d="M155.25,-454.46C126.82,-448.94 90.41,-436.65 71.93,-409.25 43.84,-367.61 55.82,-343.82 71.93,-296.25 74.2,-289.53 77.62,-282.98 81.55,-276.85"/>
<polygon fill="black" stroke="black" points="84.3,-279.02 87.2,-268.83 78.58,-274.99 84.3,-279.02"/>
<text text-anchor="middle" x="86.93" y="-337.4" font-family="JetBrains Mono" font-size="8.00">via SQL</text>
</g>
<!-- serde -->
<g id="node12" class="node">
<title>serde</title>
<polygon fill="#ffb6c1" stroke="black" points="575.05,-52 490.8,-52 490.8,-16 575.05,-16 575.05,-52"/>
<text text-anchor="middle" x="532.93" y="-37.25" font-family="JetBrains Mono" font-size="10.00">serde</text>
<text text-anchor="middle" x="532.93" y="-24.5" font-family="JetBrains Mono" font-size="10.00">(Serialization)</text>
</g>
<!-- sinex_core&#45;&gt;serde -->
<g id="edge18" class="edge">
<title>sinex_core&#45;&gt;serde</title>
<path fill="none" stroke="black" d="M395.98,-119.78C425.19,-111.59 455.73,-100.4 481.93,-85.25 493.02,-78.84 503.44,-69.44 511.94,-60.51"/>
<polygon fill="black" stroke="black" points="514.34,-63.08 518.45,-53.32 509.14,-58.39 514.34,-63.08"/>
</g>
<!-- sinex_db&#45;&gt;sinex_core -->
<g id="edge9" class="edge">
<title>sinex_db&#45;&gt;sinex_core</title>
<path fill="none" stroke="black" d="M167.09,-207.78C184.21,-198.09 203.46,-187.18 221.24,-177.12"/>
<polygon fill="black" stroke="black" points="222.64,-180.34 229.62,-172.37 219.19,-174.25 222.64,-180.34"/>
</g>
<!-- sinex_ulid -->
<g id="node6" class="node">
<title>sinex_ulid</title>
<polygon fill="#90ee90" stroke="black" points="150.3,-171.25 43.55,-171.25 43.55,-112.25 150.3,-112.25 150.3,-171.25"/>
<text text-anchor="middle" x="96.93" y="-157.75" font-family="JetBrains Mono" font-size="10.00">sinex&#45;ulid</text>
<text text-anchor="middle" x="96.93" y="-145" font-family="JetBrains Mono" font-size="10.00">• ULID utilities</text>
<text text-anchor="middle" x="96.93" y="-132.25" font-family="JetBrains Mono" font-size="10.00">• UUID conversion</text>
<text text-anchor="middle" x="96.93" y="-119.5" font-family="JetBrains Mono" font-size="10.00">• Time extraction</text>
</g>
<!-- sinex_db&#45;&gt;sinex_ulid -->
<g id="edge10" class="edge">
<title>sinex_db&#45;&gt;sinex_ulid</title>
<path fill="none" stroke="black" d="M110.07,-207.78C108.47,-199.84 106.7,-191.1 105,-182.66"/>
<polygon fill="black" stroke="black" points="108.44,-182.05 103.03,-172.95 101.58,-183.44 108.44,-182.05"/>
</g>
<!-- sqlx -->
<g id="node10" class="node">
<title>sqlx</title>
<polygon fill="#ffb6c1" stroke="black" points="472.93,-52 402.93,-52 402.93,-16 472.93,-16 472.93,-52"/>
<text text-anchor="middle" x="437.93" y="-37.25" font-family="JetBrains Mono" font-size="10.00">sqlx</text>
<text text-anchor="middle" x="437.93" y="-24.5" font-family="JetBrains Mono" font-size="10.00">(Database)</text>
</g>
<!-- sinex_db&#45;&gt;sqlx -->
<g id="edge17" class="edge">
<title>sinex_db&#45;&gt;sqlx</title>
<path fill="none" stroke="black" d="M66.34,-208.04C53.77,-198.12 41.86,-185.78 34.93,-171.25 22.1,-144.38 15.74,-127.02 34.93,-104.25 80.05,-50.71 294.94,-38.56 391.16,-35.81"/>
<polygon fill="black" stroke="black" points="391.14,-39.31 401.04,-35.55 390.96,-32.31 391.14,-39.31"/>
</g>
<!-- sinex_events&#45;&gt;sinex_core -->
<g id="edge11" class="edge">
<title>sinex_events&#45;&gt;sinex_core</title>
<path fill="none" stroke="black" d="M280.54,-207.78C280.71,-199.93 280.9,-191.3 281.07,-182.95"/>
<polygon fill="black" stroke="black" points="284.57,-183.05 281.29,-172.98 277.57,-182.9 284.57,-183.05"/>
</g>
<!-- sinex_worker&#45;&gt;sinex_core -->
<g id="edge12" class="edge">
<title>sinex_worker&#45;&gt;sinex_core</title>
<path fill="none" stroke="black" d="M336.38,-310.44C347.68,-298.37 359.01,-283.38 364.93,-267.25 373.97,-242.63 376.37,-231.85 364.93,-208.25 359.53,-197.12 351.23,-187.31 341.92,-178.9"/>
<polygon fill="black" stroke="black" points="344.23,-176.27 334.31,-172.54 339.74,-181.64 344.23,-176.27"/>
</g>
<!-- sinex_worker&#45;&gt;sinex_db -->
<g id="edge13" class="edge">
<title>sinex_worker&#45;&gt;sinex_db</title>
<path fill="none" stroke="black" d="M249.8,-310.23C227.98,-298.57 202.63,-285.04 179.9,-272.9"/>
<polygon fill="black" stroke="black" points="181.8,-269.95 171.33,-268.33 178.51,-276.13 181.8,-269.95"/>
</g>
<!-- sinex_worker&#45;&gt;tokio -->
<g id="edge23" class="edge">
<title>sinex_worker&#45;&gt;tokio</title>
<path fill="none" stroke="black" d="M241.97,-326.51C167.16,-310.67 49.73,-283.6 36.93,-267.25 -7.74,-210.21 -15.41,-156.36 34.93,-104.25 56.13,-82.3 555.52,-96.41 583.93,-85.25 597.36,-79.98 609.8,-70.17 619.69,-60.62"/>
<polygon fill="black" stroke="black" points="622.17,-63.09 626.63,-53.49 617.15,-58.21 622.17,-63.09"/>
</g>
<!-- ingestor_shared&#45;&gt;sinex_core -->
<g id="edge14" class="edge">
<title>ingestor_shared&#45;&gt;sinex_core</title>
<path fill="none" stroke="black" d="M466.71,-303.76C440.89,-271.6 399.88,-223.98 357.93,-189.25 353.24,-185.37 348.19,-181.58 343.01,-177.95"/>
<polygon fill="black" stroke="black" points="345.09,-175.13 334.84,-172.44 341.18,-180.93 345.09,-175.13"/>
</g>
<!-- ingestor_shared&#45;&gt;sinex_core -->
<g id="edge24" class="edge">
<title>ingestor_shared&#45;&gt;sinex_core</title>
<path fill="none" stroke="red" stroke-dasharray="5,2" d="M481.83,-303.95C470.34,-275.01 450.53,-234.61 421.93,-208.25 408.53,-195.9 392.39,-185.49 375.9,-176.87"/>
<polygon fill="red" stroke="red" points="377.48,-173.74 366.97,-172.4 374.35,-180.01 377.48,-173.74"/>
<text text-anchor="middle" x="485.9" y="-239.9" font-family="JetBrains Mono" font-size="8.00">migrate to</text>
<text text-anchor="middle" x="485.9" y="-230.15" font-family="JetBrains Mono" font-size="8.00">sinex&#45;core</text>
</g>
<!-- ingestor_shared&#45;&gt;sinex_db -->
<g id="edge15" class="edge">
<title>ingestor_shared&#45;&gt;sinex_db</title>
<path fill="none" stroke="black" d="M444.58,-303.82C432.16,-296.5 418.49,-289.67 404.93,-285.25 319.66,-257.45 289.35,-284.8 197.52,-267.23"/>
<polygon fill="black" stroke="black" points="198.3,-263.82 187.8,-265.23 196.89,-270.68 198.3,-263.82"/>
</g>
<!-- ingestor_shared&#45;&gt;sinex_events -->
<g id="edge16" class="edge">
<title>ingestor_shared&#45;&gt;sinex_events</title>
<path fill="none" stroke="black" d="M457.18,-303.97C448.69,-297.08 439.36,-290.4 429.93,-285.25 410.28,-274.51 387.8,-265.88 366.33,-259.1"/>
<polygon fill="black" stroke="black" points="367.59,-255.83 357,-256.27 365.55,-262.52 367.59,-255.83"/>
</g>
<!-- legend_binary -->
<g id="node15" class="node">
<title>legend_binary</title>
<ellipse fill="#87ceeb" stroke="black" cx="641.93" cy="-459.94" rx="51.44" ry="18"/>
<text text-anchor="middle" x="641.93" y="-457.21" font-family="JetBrains Mono" font-size="8.00">Application Binary</text>
</g>
<!-- legend_crate -->
<g id="node16" class="node">
<title>legend_crate</title>
<polygon fill="#90ee90" stroke="black" points="768.93,-477.94 710.93,-477.94 710.93,-441.94 768.93,-441.94 768.93,-477.94"/>
<text text-anchor="middle" x="739.93" y="-457.21" font-family="JetBrains Mono" font-size="8.00">Rust Crate</text>
</g>
<!-- legend_legacy -->
<g id="node17" class="node">
<title>legend_legacy</title>
<polygon fill="none" stroke="black" stroke-dasharray="5,2" points="882.68,-477.94 787.18,-477.94 787.18,-441.94 882.68,-441.94 882.68,-477.94"/>
<text text-anchor="middle" x="834.93" y="-457.21" font-family="JetBrains Mono" font-size="8.00">Legacy/Transitional</text>
</g>
<!-- legend_external -->
<g id="node18" class="node">
<title>legend_external</title>
<polygon fill="#ffb6c1" stroke="black" points="1004.8,-477.94 901.05,-477.94 901.05,-441.94 1004.8,-441.94 1004.8,-477.94"/>
<text text-anchor="middle" x="952.93" y="-457.21" font-family="JetBrains Mono" font-size="8.00">External Dependency</text>
</g>
</g>
</svg>
