<?xml version="1.0" encoding="UTF-8" standalone="no"?>
<!DOCTYPE svg PUBLIC "-//W3C//DTD SVG 1.1//EN"
 "http://www.w3.org/Graphics/SVG/1.1/DTD/svg11.dtd">
<!-- Generated by graphviz version 12.2.1 (0)
 -->
<!-- Title: SinexCrateDependencies Pages: 1 -->
<svg width="997pt" height="533pt"
 viewBox="0.00 0.00 996.65 532.88" xmlns="http://www.w3.org/2000/svg" xmlns:xlink="http://www.w3.org/1999/xlink">
<g id="graph0" class="graph" transform="scale(1 1) rotate(0) translate(4 528.88)">
<title>SinexCrateDependencies</title>
<polygon fill="white" stroke="none" points="-4,4 -4,-528.88 992.65,-528.88 992.65,4 -4,4"/>
<g id="clust1" class="cluster">
<title>cluster_binaries</title>
<polygon fill="#e6f3ff" stroke="black" points="114.65,-428.25 114.65,-516.88 542.65,-516.88 542.65,-428.25 114.65,-428.25"/>
<text text-anchor="middle" x="328.65" y="-499.58" font-family="JetBrains Mono Bold" font-size="14.00">Application Binaries</text>
</g>
<g id="clust2" class="cluster">
<title>cluster_core</title>
<polygon fill="#f0fff0" stroke="black" points="24.65,-104.25 24.65,-402.88 370.65,-402.88 370.65,-104.25 24.65,-104.25"/>
<text text-anchor="middle" x="197.65" y="-385.57" font-family="JetBrains Mono Bold" font-size="14.00">Core Libraries</text>
</g>
<g id="clust3" class="cluster">
<title>cluster_shared</title>
<polygon fill="#fff5ee" stroke="black" points="378.65,-296.25 378.65,-409.25 588.65,-409.25 588.65,-296.25 378.65,-296.25"/>
<text text-anchor="middle" x="483.65" y="-391.95" font-family="JetBrains Mono Bold" font-size="14.00">Shared Utilities (Legacy)</text>
</g>
<g id="clust4" class="cluster">
<title>cluster_external</title>
<polygon fill="#ffeef0" stroke="black" points="361.65,-8 361.65,-85.25 831.65,-85.25 831.65,-8 361.65,-8"/>
<text text-anchor="middle" x="596.65" y="-67.95" font-family="JetBrains Mono Bold" font-size="14.00">Key External Dependencies</text>
</g>
<g id="clust5" class="cluster">
<title>cluster_legend</title>
<polygon fill="#ffffff" stroke="black" points="550.65,-433.94 550.65,-511.19 980.65,-511.19 980.65,-433.94 550.65,-433.94"/>
<text text-anchor="middle" x="765.65" y="-493.89" font-family="JetBrains Mono Bold" font-size="14.00">Legend</text>
</g>
<!-- unified_collector -->
<g id="node1" class="node">
<title>unified_collector</title>
<ellipse fill="#87ceeb" stroke="black" cx="467.65" cy="-459.94" rx="67" ry="23.69"/>
<text text-anchor="middle" x="467.65" y="-463.19" font-family="JetBrains Mono" font-size="10.00">unified&#45;collector</text>
<text text-anchor="middle" x="467.65" y="-450.44" font-family="JetBrains Mono" font-size="10.00">(Binary)</text>
</g>
<!-- sinex_core -->
<g id="node4" class="node">
<title>sinex_core</title>
<polygon fill="#90ee90" stroke="black" points="362.4,-171.25 194.9,-171.25 194.9,-112.25 362.4,-112.25 362.4,-171.25"/>
<text text-anchor="middle" x="278.65" y="-157.75" font-family="JetBrains Mono" font-size="10.00">sinex&#45;core</text>
<text text-anchor="middle" x="278.65" y="-145" font-family="JetBrains Mono" font-size="10.00">• RawEvent types</text>
<text text-anchor="middle" x="278.65" y="-132.25" font-family="JetBrains Mono" font-size="10.00">• EventType/EventSource traits</text>
<text text-anchor="middle" x="278.65" y="-119.5" font-family="JetBrains Mono" font-size="10.00">• Error handling</text>
</g>
<!-- unified_collector&#45;&gt;sinex_core -->
<g id="edge1" class="edge">
<title>unified_collector&#45;&gt;sinex_core</title>
<path fill="none" stroke="black" d="M507.96,-440.77C520.16,-435.95 533.75,-431.27 546.65,-428.25 570.98,-422.56 641.78,-436.69 658.65,-418.25 695.24,-378.24 681.34,-345.49 658.65,-296.25 610.16,-191.05 469.66,-157.57 373.79,-147.14"/>
<polygon fill="black" stroke="black" points="374.42,-143.69 364.12,-146.16 373.72,-150.65 374.42,-143.69"/>
</g>
<!-- sinex_db -->
<g id="node5" class="node">
<title>sinex_db</title>
<polygon fill="#90ee90" stroke="black" points="172.9,-267.25 32.4,-267.25 32.4,-208.25 172.9,-208.25 172.9,-267.25"/>
<text text-anchor="middle" x="102.65" y="-253.75" font-family="JetBrains Mono" font-size="10.00">sinex&#45;db</text>
<text text-anchor="middle" x="102.65" y="-241" font-family="JetBrains Mono" font-size="10.00">• Database models</text>
<text text-anchor="middle" x="102.65" y="-228.25" font-family="JetBrains Mono" font-size="10.00">• Connection pooling</text>
<text text-anchor="middle" x="102.65" y="-215.5" font-family="JetBrains Mono" font-size="10.00">• Query implementations</text>
</g>
<!-- unified_collector&#45;&gt;sinex_db -->
<g id="edge2" class="edge">
<title>unified_collector&#45;&gt;sinex_db</title>
<path fill="none" stroke="black" d="M420.92,-442.82C404.25,-435 386.65,-424.03 374.65,-409.25 341.66,-368.64 380.51,-331.28 341.65,-296.25 290.79,-250.41 255.48,-282.47 183.95,-267.17"/>
<polygon fill="black" stroke="black" points="185.14,-263.86 174.59,-264.91 183.49,-270.66 185.14,-263.86"/>
</g>
<!-- sinex_events -->
<g id="node7" class="node">
<title>sinex_events</title>
<polygon fill="#90ee90" stroke="black" points="342.15,-267.25 191.15,-267.25 191.15,-208.25 342.15,-208.25 342.15,-267.25"/>
<text text-anchor="middle" x="266.65" y="-253.75" font-family="JetBrains Mono" font-size="10.00">sinex&#45;events</text>
<text text-anchor="middle" x="266.65" y="-241" font-family="JetBrains Mono" font-size="10.00">• Event type definitions</text>
<text text-anchor="middle" x="266.65" y="-228.25" font-family="JetBrains Mono" font-size="10.00">• Filesystem, Terminal, WM</text>
<text text-anchor="middle" x="266.65" y="-215.5" font-family="JetBrains Mono" font-size="10.00">• Payload structures</text>
</g>
<!-- unified_collector&#45;&gt;sinex_events -->
<g id="edge3" class="edge">
<title>unified_collector&#45;&gt;sinex_events</title>
<path fill="none" stroke="black" d="M428.12,-440.5C416.59,-435.8 403.81,-431.24 391.65,-428.25 350.01,-418.01 228.43,-441.02 199.65,-409.25 165.93,-372.03 178.68,-341.88 199.65,-296.25 203.08,-288.78 208.01,-281.92 213.67,-275.74"/>
<polygon fill="black" stroke="black" points="216.04,-278.32 220.68,-268.8 211.11,-273.34 216.04,-278.32"/>
</g>
<!-- ingestor_shared -->
<g id="node9" class="node">
<title>ingestor_shared</title>
<polygon fill="none" stroke="black" stroke-dasharray="5,2" points="532.77,-376 388.52,-376 388.52,-304.25 532.77,-304.25 532.77,-376"/>
<text text-anchor="middle" x="460.65" y="-362.5" font-family="JetBrains Mono" font-size="10.00">ingestor/shared</text>
<text text-anchor="middle" x="460.65" y="-349.75" font-family="JetBrains Mono" font-size="10.00">• SimpleIngestor trait</text>
<text text-anchor="middle" x="460.65" y="-337" font-family="JetBrains Mono" font-size="10.00">• IngestorRuntime</text>
<text text-anchor="middle" x="460.65" y="-324.25" font-family="JetBrains Mono" font-size="10.00">• EventSink abstractions</text>
<text text-anchor="middle" x="460.65" y="-311.5" font-family="JetBrains Mono" font-size="10.00">(Being migrated to crates)</text>
</g>
<!-- unified_collector&#45;&gt;ingestor_shared -->
<g id="edge4" class="edge">
<title>unified_collector&#45;&gt;ingestor_shared</title>
<path fill="none" stroke="black" d="M466.28,-435.94C465.46,-422.12 464.39,-404.04 463.4,-387.37"/>
<polygon fill="black" stroke="black" points="466.9,-387.42 462.82,-377.64 459.92,-387.83 466.9,-387.42"/>
</g>
<!-- tokio -->
<g id="node11" class="node">
<title>tokio</title>
<polygon fill="#ffb6c1" stroke="black" points="657.15,-52 560.15,-52 560.15,-16 657.15,-16 657.15,-52"/>
<text text-anchor="middle" x="608.65" y="-37.25" font-family="JetBrains Mono" font-size="10.00">tokio</text>
<text text-anchor="middle" x="608.65" y="-24.5" font-family="JetBrains Mono" font-size="10.00">(Async Runtime)</text>
</g>
<!-- unified_collector&#45;&gt;tokio -->
<g id="edge19" class="edge">
<title>unified_collector&#45;&gt;tokio</title>
<path fill="none" stroke="black" d="M507.94,-440.69C520.14,-435.87 533.74,-431.2 546.65,-428.25 601.41,-415.72 620.53,-439.22 672.65,-418.25 704.38,-405.48 720.65,-359.57 720.65,-341.12 720.65,-341.12 720.65,-341.12 720.65,-140.75 720.65,-135 670.02,-89.18 636.84,-59.77"/>
<polygon fill="black" stroke="black" points="639.36,-57.32 629.55,-53.32 634.72,-62.56 639.36,-57.32"/>
</g>
<!-- notify -->
<g id="node13" class="node">
<title>notify</title>
<polygon fill="#ffb6c1" stroke="black" points="752.02,-52 675.27,-52 675.27,-16 752.02,-16 752.02,-52"/>
<text text-anchor="middle" x="713.65" y="-37.25" font-family="JetBrains Mono" font-size="10.00">notify</text>
<text text-anchor="middle" x="713.65" y="-24.5" font-family="JetBrains Mono" font-size="10.00">(Filesystem)</text>
</g>
<!-- unified_collector&#45;&gt;notify -->
<g id="edge20" class="edge">
<title>unified_collector&#45;&gt;notify</title>
<path fill="none" stroke="black" d="M507.92,-440.62C520.13,-435.8 533.73,-431.15 546.65,-428.25 584.17,-419.83 688.3,-432.86 718.65,-409.25 746.36,-387.69 758.65,-376.24 758.65,-341.12 758.65,-341.12 758.65,-341.12 758.65,-140.75 758.65,-112.25 744.63,-82.62 732.25,-62"/>
<polygon fill="black" stroke="black" points="735.28,-60.25 726.99,-53.66 729.36,-63.98 735.28,-60.25"/>
</g>
<!-- clap -->
<g id="node14" class="node">
<title>clap</title>
<polygon fill="#ffb6c1" stroke="black" points="823.65,-52 769.65,-52 769.65,-16 823.65,-16 823.65,-52"/>
<text text-anchor="middle" x="796.65" y="-37.25" font-family="JetBrains Mono" font-size="10.00">clap</text>
<text text-anchor="middle" x="796.65" y="-24.5" font-family="JetBrains Mono" font-size="10.00">(CLI)</text>
</g>
<!-- unified_collector&#45;&gt;clap -->
<g id="edge21" class="edge">
<title>unified_collector&#45;&gt;clap</title>
<path fill="none" stroke="black" d="M507.9,-440.53C520.11,-435.71 533.71,-431.08 546.65,-428.25 661.6,-403.11 796.65,-458.79 796.65,-341.12 796.65,-341.12 796.65,-341.12 796.65,-140.75 796.65,-114.66 796.65,-84.95 796.65,-63.68"/>
<polygon fill="black" stroke="black" points="800.15,-63.73 796.65,-53.73 793.15,-63.73 800.15,-63.73"/>
</g>
<!-- promo_worker -->
<g id="node2" class="node">
<title>promo_worker</title>
<ellipse fill="#87ceeb" stroke="black" cx="301.65" cy="-459.94" rx="80.79" ry="23.69"/>
<text text-anchor="middle" x="301.65" y="-463.19" font-family="JetBrains Mono" font-size="10.00">sinex&#45;promo&#45;worker</text>
<text text-anchor="middle" x="301.65" y="-450.44" font-family="JetBrains Mono" font-size="10.00">(Binary)</text>
</g>
<!-- promo_worker&#45;&gt;sinex_core -->
<g id="edge5" class="edge">
<title>promo_worker&#45;&gt;sinex_core</title>
<path fill="none" stroke="black" d="M349.17,-440.41C362.71,-435.77 377.61,-431.26 391.65,-428.25 435.51,-418.83 562.45,-442.43 592.65,-409.25 626.45,-372.1 614.2,-341.61 592.65,-296.25 553.31,-213.45 451.05,-174.92 373.83,-157.24"/>
<polygon fill="black" stroke="black" points="374.63,-153.84 364.11,-155.11 373.13,-160.67 374.63,-153.84"/>
</g>
<!-- promo_worker&#45;&gt;sinex_db -->
<g id="edge6" class="edge">
<title>promo_worker&#45;&gt;sinex_db</title>
<path fill="none" stroke="black" d="M250.46,-441.21C213.63,-428.28 169.89,-412.47 166.65,-409.25 131.08,-373.91 115.02,-316.92 107.94,-278.67"/>
<polygon fill="black" stroke="black" points="111.42,-278.2 106.28,-268.94 104.52,-279.38 111.42,-278.2"/>
</g>
<!-- sinex_worker -->
<g id="node8" class="node">
<title>sinex_worker</title>
<polygon fill="#90ee90" stroke="black" points="332.27,-369.62 209.02,-369.62 209.02,-310.62 332.27,-310.62 332.27,-369.62"/>
<text text-anchor="middle" x="270.65" y="-356.12" font-family="JetBrains Mono" font-size="10.00">sinex&#45;worker</text>
<text text-anchor="middle" x="270.65" y="-343.38" font-family="JetBrains Mono" font-size="10.00">• EventProcessor trait</text>
<text text-anchor="middle" x="270.65" y="-330.62" font-family="JetBrains Mono" font-size="10.00">• Worker framework</text>
<text text-anchor="middle" x="270.65" y="-317.88" font-family="JetBrains Mono" font-size="10.00">• Metrics collection</text>
</g>
<!-- promo_worker&#45;&gt;sinex_worker -->
<g id="edge7" class="edge">
<title>promo_worker&#45;&gt;sinex_worker</title>
<path fill="none" stroke="black" d="M294.74,-436.18C293.02,-430.35 291.22,-424.08 289.65,-418.25 286.37,-406.14 283.03,-392.91 280.07,-380.87"/>
<polygon fill="black" stroke="black" points="283.5,-380.14 277.74,-371.24 276.7,-381.79 283.5,-380.14"/>
</g>
<!-- promo_worker&#45;&gt;tokio -->
<g id="edge22" class="edge">
<title>promo_worker&#45;&gt;tokio</title>
<path fill="none" stroke="black" d="M348.15,-440.32C361.94,-435.56 377.22,-431.01 391.65,-428.25 480.37,-411.29 506.32,-437.18 594.65,-418.25 605.38,-415.95 611.46,-418.32 617.65,-409.25 691.94,-300.4 642.9,-129.19 619.29,-62.7"/>
<polygon fill="black" stroke="black" points="622.71,-61.86 615.99,-53.66 616.13,-64.25 622.71,-61.86"/>
</g>
<!-- cli -->
<g id="node3" class="node">
<title>cli</title>
<ellipse fill="#ffe4b5" stroke="black" cx="162.65" cy="-459.94" rx="40.48" ry="23.69"/>
<text text-anchor="middle" x="162.65" y="-463.19" font-family="JetBrains Mono" font-size="10.00">exo CLI</text>
<text text-anchor="middle" x="162.65" y="-450.44" font-family="JetBrains Mono" font-size="10.00">(Python)</text>
</g>
<!-- cli&#45;&gt;sinex_db -->
<g id="edge8" class="edge">
<title>cli&#45;&gt;sinex_db</title>
<path fill="none" stroke="black" stroke-dasharray="5,2" d="M124.57,-451.45C101.19,-444.67 73.06,-432.1 58.65,-409.25 31.86,-366.77 42.54,-343.82 58.65,-296.25 60.92,-289.53 64.33,-282.98 68.27,-276.85"/>
<polygon fill="black" stroke="black" points="71.02,-279.02 73.92,-268.83 65.3,-274.99 71.02,-279.02"/>
<text text-anchor="middle" x="73.65" y="-337.4" font-family="JetBrains Mono" font-size="8.00">via SQL</text>
</g>
<!-- serde -->
<g id="node12" class="node">
<title>serde</title>
<polygon fill="#ffb6c1" stroke="black" points="541.77,-52 457.52,-52 457.52,-16 541.77,-16 541.77,-52"/>
<text text-anchor="middle" x="499.65" y="-37.25" font-family="JetBrains Mono" font-size="10.00">serde</text>
<text text-anchor="middle" x="499.65" y="-24.5" font-family="JetBrains Mono" font-size="10.00">(Serialization)</text>
</g>
<!-- sinex_core&#45;&gt;serde -->
<g id="edge18" class="edge">
<title>sinex_core&#45;&gt;serde</title>
<path fill="none" stroke="black" d="M362.85,-121.63C391.34,-113.03 422.52,-101.15 448.65,-85.25 459.32,-78.75 469.47,-69.62 477.87,-60.91"/>
<polygon fill="black" stroke="black" points="480.42,-63.3 484.61,-53.57 475.26,-58.57 480.42,-63.3"/>
</g>
<!-- sinex_db&#45;&gt;sinex_core -->
<g id="edge9" class="edge">
<title>sinex_db&#45;&gt;sinex_core</title>
<path fill="none" stroke="black" d="M156.89,-207.78C175.13,-198.04 195.64,-187.08 214.56,-176.98"/>
<polygon fill="black" stroke="black" points="216.08,-180.14 223.25,-172.34 212.78,-173.96 216.08,-180.14"/>
</g>
<!-- sinex_ulid -->
<g id="node6" class="node">
<title>sinex_ulid</title>
<polygon fill="#90ee90" stroke="black" points="177.02,-171.25 70.27,-171.25 70.27,-112.25 177.02,-112.25 177.02,-171.25"/>
<text text-anchor="middle" x="123.65" y="-157.75" font-family="JetBrains Mono" font-size="10.00">sinex&#45;ulid</text>
<text text-anchor="middle" x="123.65" y="-145" font-family="JetBrains Mono" font-size="10.00">• ULID utilities</text>
<text text-anchor="middle" x="123.65" y="-132.25" font-family="JetBrains Mono" font-size="10.00">• UUID conversion</text>
<text text-anchor="middle" x="123.65" y="-119.5" font-family="JetBrains Mono" font-size="10.00">• Time extraction</text>
</g>
<!-- sinex_db&#45;&gt;sinex_ulid -->
<g id="edge10" class="edge">
<title>sinex_db&#45;&gt;sinex_ulid</title>
<path fill="none" stroke="black" d="M109.12,-207.78C110.89,-199.84 112.85,-191.1 114.73,-182.66"/>
<polygon fill="black" stroke="black" points="118.14,-183.46 116.9,-172.94 111.31,-181.94 118.14,-183.46"/>
</g>
<!-- sqlx -->
<g id="node10" class="node">
<title>sqlx</title>
<polygon fill="#ffb6c1" stroke="black" points="439.65,-52 369.65,-52 369.65,-16 439.65,-16 439.65,-52"/>
<text text-anchor="middle" x="404.65" y="-37.25" font-family="JetBrains Mono" font-size="10.00">sqlx</text>
<text text-anchor="middle" x="404.65" y="-24.5" font-family="JetBrains Mono" font-size="10.00">(Database)</text>
</g>
<!-- sinex_db&#45;&gt;sqlx -->
<g id="edge17" class="edge">
<title>sinex_db&#45;&gt;sqlx</title>
<path fill="none" stroke="black" d="M79.76,-207.95C59.64,-178.92 37.1,-134.25 61.65,-104.25 98.58,-59.12 273,-42.73 357.94,-37.36"/>
<polygon fill="black" stroke="black" points="358.03,-40.86 367.8,-36.76 357.6,-33.87 358.03,-40.86"/>
</g>
<!-- sinex_events&#45;&gt;sinex_core -->
<g id="edge11" class="edge">
<title>sinex_events&#45;&gt;sinex_core</title>
<path fill="none" stroke="black" d="M270.35,-207.78C271.36,-199.84 272.48,-191.1 273.55,-182.66"/>
<polygon fill="black" stroke="black" points="277,-183.33 274.79,-172.96 270.05,-182.44 277,-183.33"/>
</g>
<!-- sinex_worker&#45;&gt;sinex_core -->
<g id="edge12" class="edge">
<title>sinex_worker&#45;&gt;sinex_core</title>
<path fill="none" stroke="black" d="M316.06,-310.34C330.17,-298.82 344.02,-284.23 351.65,-267.25 362.4,-243.33 362.33,-232.2 351.65,-208.25 346.86,-197.53 339.36,-187.83 330.95,-179.38"/>
<polygon fill="black" stroke="black" points="333.48,-176.95 323.77,-172.7 328.71,-182.08 333.48,-176.95"/>
</g>
<!-- sinex_worker&#45;&gt;sinex_db -->
<g id="edge13" class="edge">
<title>sinex_worker&#45;&gt;sinex_db</title>
<path fill="none" stroke="black" d="M222.51,-310.36C203.26,-298.86 180.92,-285.51 160.78,-273.48"/>
<polygon fill="black" stroke="black" points="162.77,-270.59 152.39,-268.47 159.18,-276.6 162.77,-270.59"/>
</g>
<!-- sinex_worker&#45;&gt;tokio -->
<g id="edge23" class="edge">
<title>sinex_worker&#45;&gt;tokio</title>
<path fill="none" stroke="black" d="M208.69,-325.16C139.3,-308.91 34.99,-282.36 23.65,-267.25 -21,-207.75 1.53,-148.05 61.65,-104.25 105.59,-72.23 500.08,-105.24 550.65,-85.25 564.06,-79.95 576.51,-70.14 586.4,-60.59"/>
<polygon fill="black" stroke="black" points="588.87,-63.07 593.34,-53.46 583.86,-58.18 588.87,-63.07"/>
</g>
<!-- ingestor_shared&#45;&gt;sinex_core -->
<g id="edge14" class="edge">
<title>ingestor_shared&#45;&gt;sinex_core</title>
<path fill="none" stroke="black" d="M438.37,-303.81C417.03,-271.67 382.68,-224.07 345.65,-189.25 341.73,-185.56 337.5,-181.95 333.13,-178.46"/>
<polygon fill="black" stroke="black" points="335.31,-175.72 325.24,-172.43 331.06,-181.28 335.31,-175.72"/>
</g>
<!-- ingestor_shared&#45;&gt;sinex_core -->
<g id="edge24" class="edge">
<title>ingestor_shared&#45;&gt;sinex_core</title>
<path fill="none" stroke="red" stroke-dasharray="5,2" d="M452.26,-303.92C443.87,-275.15 428.42,-235.02 402.65,-208.25 390.94,-196.09 376.49,-185.72 361.63,-177.05"/>
<polygon fill="red" stroke="red" points="363.59,-174.14 353.15,-172.33 360.19,-180.25 363.59,-174.14"/>
<text text-anchor="middle" x="459.98" y="-239.9" font-family="JetBrains Mono" font-size="8.00">migrate to</text>
<text text-anchor="middle" x="459.98" y="-230.15" font-family="JetBrains Mono" font-size="8.00">sinex&#45;core</text>
</g>
<!-- ingestor_shared&#45;&gt;sinex_db -->
<g id="edge15" class="edge">
<title>ingestor_shared&#45;&gt;sinex_db</title>
<path fill="none" stroke="black" d="M411.27,-303.91C398.85,-296.58 385.19,-289.73 371.65,-285.25 294.91,-259.85 267.34,-283.39 184.29,-267.25"/>
<polygon fill="black" stroke="black" points="185.03,-263.83 174.52,-265.2 183.59,-270.68 185.03,-263.83"/>
</g>
<!-- ingestor_shared&#45;&gt;sinex_events -->
<g id="edge16" class="edge">
<title>ingestor_shared&#45;&gt;sinex_events</title>
<path fill="none" stroke="black" d="M423.38,-303.99C414.99,-297.18 405.84,-290.53 396.65,-285.25 383.05,-277.44 367.92,-270.58 352.92,-264.7"/>
<polygon fill="black" stroke="black" points="354.59,-261.59 344,-261.33 352.11,-268.14 354.59,-261.59"/>
</g>
<!-- legend_binary -->
<g id="node15" class="node">
<title>legend_binary</title>
<ellipse fill="#87ceeb" stroke="black" cx="609.65" cy="-459.94" rx="51.44" ry="18"/>
<text text-anchor="middle" x="609.65" y="-457.21" font-family="JetBrains Mono" font-size="8.00">Application Binary</text>
</g>
<!-- legend_crate -->
<g id="node16" class="node">
<title>legend_crate</title>
<polygon fill="#90ee90" stroke="black" points="736.65,-477.94 678.65,-477.94 678.65,-441.94 736.65,-441.94 736.65,-477.94"/>
<text text-anchor="middle" x="707.65" y="-457.21" font-family="JetBrains Mono" font-size="8.00">Rust Crate</text>
</g>
<!-- legend_legacy -->
<g id="node17" class="node">
<title>legend_legacy</title>
<polygon fill="none" stroke="black" stroke-dasharray="5,2" points="850.4,-477.94 754.9,-477.94 754.9,-441.94 850.4,-441.94 850.4,-477.94"/>
<text text-anchor="middle" x="802.65" y="-457.21" font-family="JetBrains Mono" font-size="8.00">Legacy/Transitional</text>
</g>
<!-- legend_external -->
<g id="node18" class="node">
<title>legend_external</title>
<polygon fill="#ffb6c1" stroke="black" points="972.52,-477.94 868.77,-477.94 868.77,-441.94 972.52,-441.94 972.52,-477.94"/>
<text text-anchor="middle" x="920.65" y="-457.21" font-family="JetBrains Mono" font-size="8.00">External Dependency</text>
</g>
</g>
</svg>
