<?xml version="1.0" encoding="UTF-8" standalone="no"?>
<!DOCTYPE svg PUBLIC "-//W3C//DTD SVG 1.1//EN"
 "http://www.w3.org/Graphics/SVG/1.1/DTD/svg11.dtd">
<!-- Generated by graphviz version 12.2.1 (0)
 -->
<!-- Title: SinexDatabaseSchema Pages: 1 -->
<svg width="3210pt" height="716pt"
 viewBox="0.00 0.00 3210.00 716.25" xmlns="http://www.w3.org/2000/svg" xmlns:xlink="http://www.w3.org/1999/xlink">
<g id="graph0" class="graph" transform="scale(1 1) rotate(0) translate(4 712.25)">
<title>SinexDatabaseSchema</title>
<polygon fill="white" stroke="none" points="-4,4 -4,-712.25 3206,-712.25 3206,4 -4,4"/>
<g id="clust1" class="cluster">
<title>cluster_raw</title>
<polygon fill="#e8f8e8" stroke="black" points="983,-319.25 983,-403 2211,-403 2211,-319.25 983,-319.25"/>
<text text-anchor="middle" x="1597" y="-385.7" font-family="JetBrains Mono Bold" font-size="14.00">raw schema</text>
</g>
<g id="clust2" class="cluster">
<title>cluster_schemas</title>
<polygon fill="#fff8dc" stroke="black" points="8,-430.75 8,-655.25 2476,-655.25 2476,-430.75 8,-430.75"/>
<text text-anchor="middle" x="1242" y="-637.95" font-family="JetBrains Mono Bold" font-size="14.00">sinex_schemas</text>
</g>
<g id="clust3" class="cluster">
<title>cluster_future_knowledge</title>
<polygon fill="#ffe4e1" stroke="black" points="505,-8 505,-291.5 1539,-291.5 1539,-8 505,-8"/>
<text text-anchor="middle" x="1022" y="-274.2" font-family="JetBrains Mono Bold" font-size="14.00">Future: Knowledge Management</text>
</g>
<g id="clust4" class="cluster">
<title>cluster_future_vectors</title>
<polygon fill="#f0f0ff" stroke="black" points="1547,-8 1547,-180 2561,-180 2561,-8 1547,-8"/>
<text text-anchor="middle" x="2054" y="-162.7" font-family="JetBrains Mono Bold" font-size="14.00">Future: Vector &amp; Semantic</text>
</g>
<g id="clust5" class="cluster">
<title>cluster_constraints</title>
<polygon fill="#f9f9f9" stroke="black" points="2484,-519 2484,-700.25 2746,-700.25 2746,-519 2484,-519"/>
<text text-anchor="middle" x="2615" y="-688.65" font-family="JetBrains Mono Bold" font-size="8.00">Key Constraints &amp; Indexes</text>
</g>
<g id="clust6" class="cluster">
<title>cluster_legend</title>
<polygon fill="#ffffff" stroke="black" points="2754,-574.75 2754,-652 3194,-652 3194,-574.75 2754,-574.75"/>
<text text-anchor="middle" x="2974" y="-634.7" font-family="JetBrains Mono Bold" font-size="14.00">Legend</text>
</g>
<!-- events -->
<g id="node1" class="node">
<title>events</title>
<polygon fill="#90ee90" stroke="#006400" points="990.62,-327.75 990.62,-369.25 2203.38,-369.25 2203.38,-327.75 990.62,-327.75"/>
<text text-anchor="middle" x="1597" y="-355.75" font-family="JetBrains Mono" font-size="10.00">events (TimescaleDB hypertable)</text>
<polyline fill="none" stroke="#006400" points="990.62,-348.5 2203.38,-348.5"/>
<text text-anchor="middle" x="1051.88" y="-335" font-family="JetBrains Mono" font-size="10.00">id: ULID PRIMARY KEY</text>
<polyline fill="none" stroke="#006400" points="1113.12,-327.75 1113.12,-348.5"/>
<text text-anchor="middle" x="1178.88" y="-335" font-family="JetBrains Mono" font-size="10.00">source: TEXT NOT NULL</text>
<polyline fill="none" stroke="#006400" points="1244.62,-327.75 1244.62,-348.5"/>
<text text-anchor="middle" x="1321.62" y="-335" font-family="JetBrains Mono" font-size="10.00">event_type: TEXT NOT NULL</text>
<polyline fill="none" stroke="#006400" points="1398.62,-327.75 1398.62,-348.5"/>
<text text-anchor="middle" x="1497.75" y="-335" font-family="JetBrains Mono" font-size="10.00">ts_ingest: TIMESTAMPTZ GENERATED</text>
<polyline fill="none" stroke="#006400" points="1596.88,-327.75 1596.88,-348.5"/>
<text text-anchor="middle" x="1659.25" y="-335" font-family="JetBrains Mono" font-size="10.00">ts_orig: TIMESTAMPTZ</text>
<polyline fill="none" stroke="#006400" points="1721.62,-327.75 1721.62,-348.5"/>
<text text-anchor="middle" x="1755.5" y="-335" font-family="JetBrains Mono" font-size="10.00">host: TEXT</text>
<polyline fill="none" stroke="#006400" points="1789.38,-327.75 1789.38,-348.5"/>
<text text-anchor="middle" x="1853.25" y="-335" font-family="JetBrains Mono" font-size="10.00">ingestor_version: TEXT</text>
<polyline fill="none" stroke="#006400" points="1917.12,-327.75 1917.12,-348.5"/>
<text text-anchor="middle" x="1988.12" y="-335" font-family="JetBrains Mono" font-size="10.00">payload_schema_id: ULID</text>
<polyline fill="none" stroke="#006400" points="2059.12,-327.75 2059.12,-348.5"/>
<text text-anchor="middle" x="2131.25" y="-335" font-family="JetBrains Mono" font-size="10.00">payload: JSONB NOT NULL</text>
</g>
<!-- event_payload_schemas -->
<g id="node2" class="node">
<title>event_payload_schemas</title>
<polygon fill="#ffd700" stroke="#ff8c00" points="1279.88,-580 1279.88,-621.5 2468.12,-621.5 2468.12,-580 1279.88,-580"/>
<text text-anchor="middle" x="1874" y="-608" font-family="JetBrains Mono" font-size="10.00">event_payload_schemas</text>
<polyline fill="none" stroke="#ff8c00" points="1279.88,-600.75 2468.12,-600.75"/>
<text text-anchor="middle" x="1341.12" y="-587.25" font-family="JetBrains Mono" font-size="10.00">id: ULID PRIMARY KEY</text>
<polyline fill="none" stroke="#ff8c00" points="1402.38,-580 1402.38,-600.75"/>
<text text-anchor="middle" x="1484.62" y="-587.25" font-family="JetBrains Mono" font-size="10.00">event_source: TEXT NOT NULL</text>
<polyline fill="none" stroke="#ff8c00" points="1566.88,-580 1566.88,-600.75"/>
<text text-anchor="middle" x="1643.88" y="-587.25" font-family="JetBrains Mono" font-size="10.00">event_type: TEXT NOT NULL</text>
<polyline fill="none" stroke="#ff8c00" points="1720.88,-580 1720.88,-600.75"/>
<text text-anchor="middle" x="1810.25" y="-587.25" font-family="JetBrains Mono" font-size="10.00">schema_version: TEXT NOT NULL</text>
<polyline fill="none" stroke="#ff8c00" points="1899.62,-580 1899.62,-600.75"/>
<text text-anchor="middle" x="1983.38" y="-587.25" font-family="JetBrains Mono" font-size="10.00">json_schema_definition: JSONB</text>
<polyline fill="none" stroke="#ff8c00" points="2067.12,-580 2067.12,-600.75"/>
<text text-anchor="middle" x="2157.62" y="-587.25" font-family="JetBrains Mono" font-size="10.00">is_active: BOOLEAN DEFAULT true</text>
<polyline fill="none" stroke="#ff8c00" points="2248.12,-580 2248.12,-600.75"/>
<text text-anchor="middle" x="2358.12" y="-587.25" font-family="JetBrains Mono" font-size="10.00">created_at: TIMESTAMPTZ DEFAULT now()</text>
</g>
<!-- events&#45;&gt;event_payload_schemas -->
<g id="edge3" class="edge">
<title>events&#45;&gt;event_payload_schemas</title>
<path fill="none" stroke="#ff8c00" stroke-dasharray="5,2" d="M1673.3,-369.69C1710.11,-382.44 1752.93,-402.05 1784,-430.75 1825.72,-469.28 1851.83,-531.64 1864.6,-568.87"/>
<polygon fill="#ff8c00" stroke="#ff8c00" points="1861.19,-569.73 1867.65,-578.13 1867.84,-567.53 1861.19,-569.73"/>
<text text-anchor="middle" x="1863.8" y="-462.15" font-family="JetBrains Mono" font-size="8.00" fill="#ff8c00">payload_schema_id</text>
<text text-anchor="middle" x="1863.8" y="-452.4" font-family="JetBrains Mono" font-size="8.00" fill="#ff8c00">(optional)</text>
</g>
<!-- artifacts -->
<g id="node5" class="node">
<title>artifacts</title>
<polygon fill="none" stroke="#dc143c" stroke-dasharray="5,2" points="557.38,-216.25 557.38,-257.75 1530.62,-257.75 1530.62,-216.25 557.38,-216.25"/>
<text text-anchor="middle" x="1044" y="-244.25" font-family="JetBrains Mono" font-size="10.00">artifacts</text>
<polyline fill="none" stroke="#dc143c" stroke-dasharray="5,2" points="557.38,-237 1530.62,-237"/>
<text text-anchor="middle" x="618.62" y="-223.5" font-family="JetBrains Mono" font-size="10.00">id: ULID PRIMARY KEY</text>
<polyline fill="none" stroke="#dc143c" stroke-dasharray="5,2" points="679.88,-216.25 679.88,-237"/>
<text text-anchor="middle" x="760.62" y="-223.5" font-family="JetBrains Mono" font-size="10.00">artifact_type: TEXT NOT NULL</text>
<polyline fill="none" stroke="#dc143c" stroke-dasharray="5,2" points="841.38,-216.25 841.38,-237"/>
<text text-anchor="middle" x="874.5" y="-223.5" font-family="JetBrains Mono" font-size="10.00">title: TEXT</text>
<polyline fill="none" stroke="#dc143c" stroke-dasharray="5,2" points="907.62,-216.25 907.62,-237"/>
<text text-anchor="middle" x="949.38" y="-223.5" font-family="JetBrains Mono" font-size="10.00">content: TEXT</text>
<polyline fill="none" stroke="#dc143c" stroke-dasharray="5,2" points="991.12,-216.25 991.12,-237"/>
<text text-anchor="middle" x="1047.12" y="-223.5" font-family="JetBrains Mono" font-size="10.00">content_hash: TEXT</text>
<polyline fill="none" stroke="#dc143c" stroke-dasharray="5,2" points="1103.12,-216.25 1103.12,-237"/>
<text text-anchor="middle" x="1171.88" y="-223.5" font-family="JetBrains Mono" font-size="10.00">source_event_ids: ULID[]</text>
<polyline fill="none" stroke="#dc143c" stroke-dasharray="5,2" points="1240.62,-216.25 1240.62,-237"/>
<text text-anchor="middle" x="1312.38" y="-223.5" font-family="JetBrains Mono" font-size="10.00">created_at: TIMESTAMPTZ</text>
<polyline fill="none" stroke="#dc143c" stroke-dasharray="5,2" points="1384.12,-216.25 1384.12,-237"/>
<text text-anchor="middle" x="1457.38" y="-223.5" font-family="JetBrains Mono" font-size="10.00">updated_at: TIMESTAMPTZ</text>
</g>
<!-- events&#45;&gt;artifacts -->
<g id="edge4" class="edge">
<title>events&#45;&gt;artifacts</title>
<path fill="none" stroke="#dc143c" stroke-dasharray="5,2" d="M1494.93,-327.29C1399.22,-308.34 1256.38,-280.05 1157.21,-260.42"/>
<polygon fill="#dc143c" stroke="#dc143c" points="1157.92,-256.99 1147.43,-258.48 1156.56,-263.86 1157.92,-256.99"/>
<text text-anchor="middle" x="1437.59" y="-301.65" font-family="JetBrains Mono" font-size="8.00" fill="#dc143c">source_event_ids</text>
</g>
<!-- embeddings -->
<g id="node8" class="node">
<title>embeddings</title>
<polygon fill="none" stroke="#dc143c" stroke-dasharray="5,2" points="1554.75,-104.75 1554.75,-146.25 2553.25,-146.25 2553.25,-104.75 1554.75,-104.75"/>
<text text-anchor="middle" x="2054" y="-132.75" font-family="JetBrains Mono" font-size="10.00">embeddings</text>
<polyline fill="none" stroke="#dc143c" stroke-dasharray="5,2" points="1554.75,-125.5 2553.25,-125.5"/>
<text text-anchor="middle" x="1616" y="-112" font-family="JetBrains Mono" font-size="10.00">id: ULID PRIMARY KEY</text>
<polyline fill="none" stroke="#dc143c" stroke-dasharray="5,2" points="1677.25,-104.75 1677.25,-125.5"/>
<text text-anchor="middle" x="1749.38" y="-112" font-family="JetBrains Mono" font-size="10.00">source_id: ULID NOT NULL</text>
<polyline fill="none" stroke="#dc143c" stroke-dasharray="5,2" points="1821.5,-104.75 1821.5,-125.5"/>
<text text-anchor="middle" x="1900.75" y="-112" font-family="JetBrains Mono" font-size="10.00">source_type: TEXT NOT NULL</text>
<polyline fill="none" stroke="#dc143c" stroke-dasharray="5,2" points="1980,-104.75 1980,-125.5"/>
<text text-anchor="middle" x="2054" y="-112" font-family="JetBrains Mono" font-size="10.00">embedding: VECTOR(1536)</text>
<polyline fill="none" stroke="#dc143c" stroke-dasharray="5,2" points="2128,-104.75 2128,-125.5"/>
<text text-anchor="middle" x="2209.5" y="-112" font-family="JetBrains Mono" font-size="10.00">model_name: TEXT NOT NULL</text>
<polyline fill="none" stroke="#dc143c" stroke-dasharray="5,2" points="2291,-104.75 2291,-125.5"/>
<text text-anchor="middle" x="2350.38" y="-112" font-family="JetBrains Mono" font-size="10.00">model_version: TEXT</text>
<polyline fill="none" stroke="#dc143c" stroke-dasharray="5,2" points="2409.75,-104.75 2409.75,-125.5"/>
<text text-anchor="middle" x="2481.5" y="-112" font-family="JetBrains Mono" font-size="10.00">created_at: TIMESTAMPTZ</text>
</g>
<!-- events&#45;&gt;embeddings -->
<g id="edge7" class="edge">
<title>events&#45;&gt;embeddings</title>
<path fill="none" stroke="#dc143c" stroke-dasharray="5,2" d="M1638.77,-327.3C1722.47,-286.83 1910.53,-195.88 2002.03,-151.63"/>
<polygon fill="#dc143c" stroke="#dc143c" points="2003.32,-154.89 2010.8,-147.39 2000.28,-148.59 2003.32,-154.89"/>
<text text-anchor="middle" x="1898.68" y="-234.28" font-family="JetBrains Mono" font-size="8.00" fill="#dc143c">source_id (event)</text>
</g>
<!-- agent_manifests -->
<g id="node3" class="node">
<title>agent_manifests</title>
<polygon fill="#90ee90" stroke="#006400" points="16.25,-580 16.25,-621.5 1261.75,-621.5 1261.75,-580 16.25,-580"/>
<text text-anchor="middle" x="639" y="-608" font-family="JetBrains Mono" font-size="10.00">agent_manifests</text>
<polyline fill="none" stroke="#006400" points="16.25,-600.75 1261.75,-600.75"/>
<text text-anchor="middle" x="104.12" y="-587.25" font-family="JetBrains Mono" font-size="10.00">agent_name: TEXT PRIMARY KEY</text>
<polyline fill="none" stroke="#006400" points="192,-580 192,-600.75"/>
<text text-anchor="middle" x="259.62" y="-587.25" font-family="JetBrains Mono" font-size="10.00">version: TEXT NOT NULL</text>
<polyline fill="none" stroke="#006400" points="327.25,-580 327.25,-600.75"/>
<text text-anchor="middle" x="365.62" y="-587.25" font-family="JetBrains Mono" font-size="10.00">status: TEXT</text>
<polyline fill="none" stroke="#006400" points="404,-580 404,-600.75"/>
<text text-anchor="middle" x="454.75" y="-587.25" font-family="JetBrains Mono" font-size="10.00">agent_type: TEXT</text>
<polyline fill="none" stroke="#006400" points="505.5,-580 505.5,-600.75"/>
<text text-anchor="middle" x="586.62" y="-587.25" font-family="JetBrains Mono" font-size="10.00">produces_event_types: JSONB</text>
<polyline fill="none" stroke="#006400" points="667.75,-580 667.75,-600.75"/>
<text text-anchor="middle" x="760.12" y="-587.25" font-family="JetBrains Mono" font-size="10.00">subscribes_to_event_types: JSONB</text>
<polyline fill="none" stroke="#006400" points="852.5,-580 852.5,-600.75"/>
<text text-anchor="middle" x="940.75" y="-587.25" font-family="JetBrains Mono" font-size="10.00">last_heartbeat_ts: TIMESTAMPTZ</text>
<polyline fill="none" stroke="#006400" points="1029,-580 1029,-600.75"/>
<text text-anchor="middle" x="1145.38" y="-587.25" font-family="JetBrains Mono" font-size="10.00">registered_at: TIMESTAMPTZ DEFAULT now()</text>
</g>
<!-- promotion_queue -->
<g id="node4" class="node">
<title>promotion_queue</title>
<polygon fill="#90ee90" stroke="#006400" points="79,-439.25 79,-480.75 1775,-480.75 1775,-439.25 79,-439.25"/>
<text text-anchor="middle" x="927" y="-467.25" font-family="JetBrains Mono" font-size="10.00">promotion_queue</text>
<polyline fill="none" stroke="#006400" points="79,-460 1775,-460"/>
<text text-anchor="middle" x="157.88" y="-446.5" font-family="JetBrains Mono" font-size="10.00">queue_id: ULID PRIMARY KEY</text>
<polyline fill="none" stroke="#006400" points="236.75,-439.25 236.75,-460"/>
<text text-anchor="middle" x="318.25" y="-446.5" font-family="JetBrains Mono" font-size="10.00">raw_event_id: ULID NOT NULL</text>
<polyline fill="none" stroke="#006400" points="399.75,-439.25 399.75,-460"/>
<text text-anchor="middle" x="497" y="-446.5" font-family="JetBrains Mono" font-size="10.00">target_agent_name: TEXT NOT NULL</text>
<polyline fill="none" stroke="#006400" points="594.25,-439.25 594.25,-460"/>
<text text-anchor="middle" x="679.5" y="-446.5" font-family="JetBrains Mono" font-size="10.00">status: TEXT DEFAULT &#39;pending&#39;</text>
<polyline fill="none" stroke="#006400" points="764.75,-439.25 764.75,-460"/>
<text text-anchor="middle" x="844.75" y="-446.5" font-family="JetBrains Mono" font-size="10.00">priority: INTEGER DEFAULT 10</text>
<polyline fill="none" stroke="#006400" points="924.75,-439.25 924.75,-460"/>
<text text-anchor="middle" x="1006.62" y="-446.5" font-family="JetBrains Mono" font-size="10.00">attempts: INTEGER DEFAULT 0</text>
<polyline fill="none" stroke="#006400" points="1088.5,-439.25 1088.5,-460"/>
<text text-anchor="middle" x="1183.88" y="-446.5" font-family="JetBrains Mono" font-size="10.00">max_attempts: INTEGER DEFAULT 3</text>
<polyline fill="none" stroke="#006400" points="1279.25,-439.25 1279.25,-460"/>
<text text-anchor="middle" x="1357.38" y="-446.5" font-family="JetBrains Mono" font-size="10.00">next_retry_ts: TIMESTAMPTZ</text>
<polyline fill="none" stroke="#006400" points="1435.5,-439.25 1435.5,-460"/>
<text text-anchor="middle" x="1545.5" y="-446.5" font-family="JetBrains Mono" font-size="10.00">created_at: TIMESTAMPTZ DEFAULT now()</text>
<polyline fill="none" stroke="#006400" points="1655.5,-439.25 1655.5,-460"/>
<text text-anchor="middle" x="1715.25" y="-446.5" font-family="JetBrains Mono" font-size="10.00">error_message: TEXT</text>
</g>
<!-- agent_manifests&#45;&gt;promotion_queue -->
<g id="edge2" class="edge">
<title>agent_manifests&#45;&gt;promotion_queue</title>
<path fill="none" stroke="#006400" d="M680.88,-579.57C732.17,-554.86 819.09,-512.99 874.72,-486.19"/>
<polygon fill="#006400" stroke="#006400" points="876.22,-489.35 883.71,-481.86 873.18,-483.04 876.22,-489.35"/>
<text text-anchor="middle" x="881.65" y="-501.4" font-family="JetBrains Mono" font-size="8.00" fill="#006400">target_agent_name</text>
</g>
<!-- promotion_queue&#45;&gt;events -->
<g id="edge1" class="edge">
<title>promotion_queue&#45;&gt;events</title>
<path fill="none" stroke="#006400" d="M1050.67,-438.79C1167.36,-419.72 1341.87,-391.2 1462.1,-371.55"/>
<polygon fill="#006400" stroke="#006400" points="1462.4,-375.04 1471.71,-369.98 1461.27,-368.14 1462.4,-375.04"/>
<text text-anchor="middle" x="1228.61" y="-413.15" font-family="JetBrains Mono" font-size="8.00" fill="#006400">raw_event_id</text>
</g>
<!-- knowledge_entities -->
<g id="node6" class="node">
<title>knowledge_entities</title>
<polygon fill="none" stroke="#dc143c" stroke-dasharray="5,2" points="558.25,-104.75 558.25,-146.25 1517.75,-146.25 1517.75,-104.75 558.25,-104.75"/>
<text text-anchor="middle" x="1038" y="-132.75" font-family="JetBrains Mono" font-size="10.00">knowledge_entities</text>
<polyline fill="none" stroke="#dc143c" stroke-dasharray="5,2" points="558.25,-125.5 1517.75,-125.5"/>
<text text-anchor="middle" x="619.5" y="-112" font-family="JetBrains Mono" font-size="10.00">id: ULID PRIMARY KEY</text>
<polyline fill="none" stroke="#dc143c" stroke-dasharray="5,2" points="680.75,-104.75 680.75,-125.5"/>
<text text-anchor="middle" x="758.12" y="-112" font-family="JetBrains Mono" font-size="10.00">entity_type: TEXT NOT NULL</text>
<polyline fill="none" stroke="#dc143c" stroke-dasharray="5,2" points="835.5,-104.75 835.5,-125.5"/>
<text text-anchor="middle" x="915.88" y="-112" font-family="JetBrains Mono" font-size="10.00">entity_name: TEXT NOT NULL</text>
<polyline fill="none" stroke="#dc143c" stroke-dasharray="5,2" points="996.25,-104.75 996.25,-125.5"/>
<text text-anchor="middle" x="1047.38" y="-112" font-family="JetBrains Mono" font-size="10.00">properties: JSONB</text>
<polyline fill="none" stroke="#dc143c" stroke-dasharray="5,2" points="1098.5,-104.75 1098.5,-125.5"/>
<text text-anchor="middle" x="1163.88" y="-112" font-family="JetBrains Mono" font-size="10.00">confidence_score: REAL</text>
<polyline fill="none" stroke="#dc143c" stroke-dasharray="5,2" points="1229.25,-104.75 1229.25,-125.5"/>
<text text-anchor="middle" x="1301.75" y="-112" font-family="JetBrains Mono" font-size="10.00">source_artifact_ids: ULID[]</text>
<polyline fill="none" stroke="#dc143c" stroke-dasharray="5,2" points="1374.25,-104.75 1374.25,-125.5"/>
<text text-anchor="middle" x="1446" y="-112" font-family="JetBrains Mono" font-size="10.00">created_at: TIMESTAMPTZ</text>
</g>
<!-- artifacts&#45;&gt;knowledge_entities -->
<g id="edge5" class="edge">
<title>artifacts&#45;&gt;knowledge_entities</title>
<path fill="none" stroke="#dc143c" stroke-dasharray="5,2" d="M1042.9,-215.92C1042.01,-199.63 1040.73,-176.4 1039.71,-157.69"/>
<polygon fill="#dc143c" stroke="#dc143c" points="1043.22,-157.76 1039.18,-147.97 1036.23,-158.14 1043.22,-157.76"/>
<text text-anchor="middle" x="1080.14" y="-190.15" font-family="JetBrains Mono" font-size="8.00" fill="#dc143c">source_artifact_ids</text>
</g>
<!-- artifacts&#45;&gt;embeddings -->
<g id="edge8" class="edge">
<title>artifacts&#45;&gt;embeddings</title>
<path fill="none" stroke="#dc143c" stroke-dasharray="5,2" d="M1230.72,-215.76C1408.44,-196.49 1674.93,-167.6 1856.22,-147.94"/>
<polygon fill="#dc143c" stroke="#dc143c" points="1856.42,-151.44 1865.99,-146.88 1855.67,-144.48 1856.42,-151.44"/>
<text text-anchor="middle" x="1496.79" y="-190.15" font-family="JetBrains Mono" font-size="8.00" fill="#dc143c">source_id (artifact)</text>
</g>
<!-- entity_relationships -->
<g id="node7" class="node">
<title>entity_relationships</title>
<polygon fill="none" stroke="#dc143c" stroke-dasharray="5,2" points="512.62,-16.5 512.62,-58 1531.38,-58 1531.38,-16.5 512.62,-16.5"/>
<text text-anchor="middle" x="1022" y="-44.5" font-family="JetBrains Mono" font-size="10.00">entity_relationships</text>
<polyline fill="none" stroke="#dc143c" stroke-dasharray="5,2" points="512.62,-37.25 1531.38,-37.25"/>
<text text-anchor="middle" x="573.88" y="-23.75" font-family="JetBrains Mono" font-size="10.00">id: ULID PRIMARY KEY</text>
<polyline fill="none" stroke="#dc143c" stroke-dasharray="5,2" points="635.12,-16.5 635.12,-37.25"/>
<text text-anchor="middle" x="719.62" y="-23.75" font-family="JetBrains Mono" font-size="10.00">from_entity_id: ULID NOT NULL</text>
<polyline fill="none" stroke="#dc143c" stroke-dasharray="5,2" points="804.12,-16.5 804.12,-37.25"/>
<text text-anchor="middle" x="881.88" y="-23.75" font-family="JetBrains Mono" font-size="10.00">to_entity_id: ULID NOT NULL</text>
<polyline fill="none" stroke="#dc143c" stroke-dasharray="5,2" points="959.62,-16.5 959.62,-37.25"/>
<text text-anchor="middle" x="1051.62" y="-23.75" font-family="JetBrains Mono" font-size="10.00">relationship_type: TEXT NOT NULL</text>
<polyline fill="none" stroke="#dc143c" stroke-dasharray="5,2" points="1143.62,-16.5 1143.62,-37.25"/>
<text text-anchor="middle" x="1187.25" y="-23.75" font-family="JetBrains Mono" font-size="10.00">strength: REAL</text>
<polyline fill="none" stroke="#dc143c" stroke-dasharray="5,2" points="1230.88,-16.5 1230.88,-37.25"/>
<text text-anchor="middle" x="1309.38" y="-23.75" font-family="JetBrains Mono" font-size="10.00">evidence_artifact_ids: ULID[]</text>
<polyline fill="none" stroke="#dc143c" stroke-dasharray="5,2" points="1387.88,-16.5 1387.88,-37.25"/>
<text text-anchor="middle" x="1459.62" y="-23.75" font-family="JetBrains Mono" font-size="10.00">created_at: TIMESTAMPTZ</text>
</g>
<!-- knowledge_entities&#45;&gt;entity_relationships -->
<g id="edge6" class="edge">
<title>knowledge_entities&#45;&gt;entity_relationships</title>
<path fill="none" stroke="#dc143c" stroke-dasharray="5,2" d="M1034.29,-104.5C1032.36,-94.12 1029.97,-81.21 1027.81,-69.55"/>
<polygon fill="#dc143c" stroke="#dc143c" points="1031.29,-69.13 1026.02,-59.93 1024.41,-70.4 1031.29,-69.13"/>
<text text-anchor="middle" x="1064.6" y="-78.65" font-family="JetBrains Mono" font-size="8.00" fill="#dc143c">from/to_entity_id</text>
</g>
<!-- semantic_clusters -->
<g id="node9" class="node">
<title>semantic_clusters</title>
<polygon fill="none" stroke="#dc143c" stroke-dasharray="5,2" points="1655.75,-16.5 1655.75,-58 2452.25,-58 2452.25,-16.5 1655.75,-16.5"/>
<text text-anchor="middle" x="2054" y="-44.5" font-family="JetBrains Mono" font-size="10.00">semantic_clusters</text>
<polyline fill="none" stroke="#dc143c" stroke-dasharray="5,2" points="1655.75,-37.25 2452.25,-37.25"/>
<text text-anchor="middle" x="1717" y="-23.75" font-family="JetBrains Mono" font-size="10.00">id: ULID PRIMARY KEY</text>
<polyline fill="none" stroke="#dc143c" stroke-dasharray="5,2" points="1778.25,-16.5 1778.25,-37.25"/>
<text text-anchor="middle" x="1834.62" y="-23.75" font-family="JetBrains Mono" font-size="10.00">cluster_name: TEXT</text>
<polyline fill="none" stroke="#dc143c" stroke-dasharray="5,2" points="1891,-16.5 1891,-37.25"/>
<text text-anchor="middle" x="1957.5" y="-23.75" font-family="JetBrains Mono" font-size="10.00">centroid: VECTOR(1536)</text>
<polyline fill="none" stroke="#dc143c" stroke-dasharray="5,2" points="2024,-16.5 2024,-37.25"/>
<text text-anchor="middle" x="2093.12" y="-23.75" font-family="JetBrains Mono" font-size="10.00">member_count: INTEGER</text>
<polyline fill="none" stroke="#dc143c" stroke-dasharray="5,2" points="2162.25,-16.5 2162.25,-37.25"/>
<text text-anchor="middle" x="2234" y="-23.75" font-family="JetBrains Mono" font-size="10.00">created_at: TIMESTAMPTZ</text>
<polyline fill="none" stroke="#dc143c" stroke-dasharray="5,2" points="2305.75,-16.5 2305.75,-37.25"/>
<text text-anchor="middle" x="2379" y="-23.75" font-family="JetBrains Mono" font-size="10.00">updated_at: TIMESTAMPTZ</text>
</g>
<!-- embeddings&#45;&gt;semantic_clusters -->
<g id="edge9" class="edge">
<title>embeddings&#45;&gt;semantic_clusters</title>
<path fill="none" stroke="#dc143c" stroke-dasharray="5,2" d="M2054,-104.5C2054,-94.23 2054,-81.48 2054,-69.91"/>
<polygon fill="#dc143c" stroke="#dc143c" points="2057.5,-69.96 2054,-59.96 2050.5,-69.96 2057.5,-69.96"/>
<text text-anchor="middle" x="2094.5" y="-78.65" font-family="JetBrains Mono" font-size="8.00" fill="#dc143c">cluster membership</text>
</g>
<!-- constraints -->
<g id="node10" class="node">
<title>constraints</title>
<polygon fill="#f0f0f0" stroke="black" points="2738.12,-674.5 2491.88,-674.5 2491.88,-527 2738.12,-527 2738.12,-674.5"/>
<text text-anchor="start" x="2499.88" y="-661" font-family="JetBrains Mono" font-size="10.00">✅ IMPLEMENTED:</text>
<text text-anchor="start" x="2499.88" y="-648.25" font-family="JetBrains Mono" font-size="10.00">• events: Hypertable on ts_ingest</text>
<text text-anchor="start" x="2499.88" y="-635.5" font-family="JetBrains Mono" font-size="10.00">• events: ULID → TIMESTAMPTZ extraction</text>
<text text-anchor="start" x="2499.88" y="-622.75" font-family="JetBrains Mono" font-size="10.00">• promotion_queue: FOR UPDATE SKIP LOCKED</text>
<text text-anchor="start" x="2499.88" y="-610" font-family="JetBrains Mono" font-size="10.00">• agent_manifests: Heartbeat tracking</text>
<text text-anchor="start" x="2499.88" y="-585.25" font-family="JetBrains Mono" font-size="10.00">❌ PLANNED:</text>
<text text-anchor="start" x="2499.88" y="-572.5" font-family="JetBrains Mono" font-size="10.00">• JSON Schema validation via pg_jsonschema</text>
<text text-anchor="start" x="2499.88" y="-559.75" font-family="JetBrains Mono" font-size="10.00">• Vector similarity indexes (pgvector)</text>
<text text-anchor="start" x="2499.88" y="-547" font-family="JetBrains Mono" font-size="10.00">• Entity uniqueness constraints</text>
<text text-anchor="middle" x="2615" y="-534.25" font-family="JetBrains Mono" font-size="10.00">• Referential integrity for future tables</text>
</g>
<!-- legend_impl -->
<g id="node11" class="node">
<title>legend_impl</title>
<polygon fill="#90ee90" stroke="black" points="2879.62,-618.75 2762.38,-618.75 2762.38,-582.75 2879.62,-582.75 2879.62,-618.75"/>
<text text-anchor="middle" x="2821" y="-598.02" font-family="JetBrains Mono" font-size="8.00">✅ Implemented &amp; Active</text>
</g>
<!-- legend_partial -->
<g id="node12" class="node">
<title>legend_partial</title>
<polygon fill="#ffd700" stroke="black" points="3032.25,-618.75 2897.75,-618.75 2897.75,-582.75 3032.25,-582.75 3032.25,-618.75"/>
<text text-anchor="middle" x="2965" y="-598.02" font-family="JetBrains Mono" font-size="8.00">🟡 Implemented, Limited Use</text>
</g>
<!-- legend_future -->
<g id="node13" class="node">
<title>legend_future</title>
<polygon fill="none" stroke="black" stroke-dasharray="5,2" points="3186,-618.75 3050,-618.75 3050,-582.75 3186,-582.75 3186,-618.75"/>
<text text-anchor="middle" x="3118" y="-598.02" font-family="JetBrains Mono" font-size="8.00">❌ Planned, Not Implemented</text>
</g>
</g>
</svg>
